<?xml version="1.0" encoding="utf-8"?>
<!-- Generator: Adobe Illustrator 16.0.0, SVG Export Plug-In . SVG Version: 6.00 Build 0)  -->
<!DOCTYPE svg PUBLIC "-//W3C//DTD SVG 1.1//EN" "http://www.w3.org/Graphics/SVG/1.1/DTD/svg11.dtd">
<svg version="1.1" id="Layer_1" xmlns="http://www.w3.org/2000/svg" xmlns:xlink="http://www.w3.org/1999/xlink" x="0px" y="0px"
	 width="840.992px" height="840.626px" viewBox="0 0 840.992 840.626" enable-background="new 0 0 840.992 840.626"
	 xml:space="preserve">
<g>
	<path fill="#FFFFFF" d="M78.973,418.852c0-68.552,20.009-134.025,57.263-189.759l-6.433-20.651l-20.789,0.626
		c-13.383,19.891-24.838,41.047-34.267,63.338c-19.415,45.902-29.343,94.623-29.552,144.834H29.652v-10.961L0,435.943l29.652,29.658
		v-10.804h17.225c3.595,38.101,12.913,75.139,27.87,110.503c15.451,36.529,36.34,70.017,62.252,99.866l5.93-19.037l22.97,0.689
		C109.712,584.009,78.973,503.798,78.973,418.852z"/>
	<path fill="#FFFFFF" d="M151.236,208.375c8.625-11.025,17.976-21.595,28.03-31.651c64.675-64.675,150.665-100.293,242.13-100.293
		c91.463,0,177.453,35.618,242.128,100.293c1.647,1.649,3.264,3.32,4.875,4.996l17.346-5.404l-0.778-25.889
		c-33.996-33.395-73.373-59.716-117.124-78.221c-45.674-19.319-94.142-29.24-144.089-29.543V29.65h10.959L405.048,0L375.39,29.65
		h10.803v14.62c-38.363,3.543-75.653,12.881-111.245,27.936c-44.803,18.949-85.035,46.073-119.581,80.62
		c-11.179,11.178-21.566,22.96-31.165,35.292l20.532-0.618L151.236,208.375z"/>
	<path fill="#FFFFFF" d="M659.833,664.582c-64.239,62.382-148.696,96.69-238.438,96.69c-88.129,0-171.167-33.076-234.96-93.344
		l-28.575-0.857l-4.81,15.436c0.775,0.789,1.533,1.592,2.316,2.374c34.546,34.545,74.778,61.669,119.581,80.619
		c43.444,18.375,89.413,28.267,136.783,29.449v16.026h-10.96l29.664,29.65l29.658-29.65H449.29v-16.92
		c40.938-2.982,80.703-12.547,118.552-28.556c43.523-18.41,82.718-44.554,116.592-77.701l-17.208,0.518L659.833,664.582z"/>
	<path fill="#FFFFFF" d="M840.992,436.095l-29.651-29.658v10.803h-13.746c-0.209-50.211-10.139-98.932-29.553-144.834
		c-15.383-36.369-36.152-69.727-61.908-99.475l0.551,18.316l-23.206,7.229c51.993,61.623,80.338,138.815,80.338,220.375
		c0,85.372-31.041,165.966-87.767,228.918l6.105,19.604l22.271-0.669c26.538-30.237,47.897-64.242,63.616-101.404
		c14.957-35.364,24.275-72.402,27.871-110.503h15.428v10.962L840.992,436.095z"/>
</g>
</svg>
