<?xml version="1.0" encoding="utf-8"?>
<!-- Generator: Adobe Illustrator 16.0.0, SVG Export Plug-In . SVG Version: 6.00 Build 0)  -->
<!DOCTYPE svg PUBLIC "-//W3C//DTD SVG 1.1//EN" "http://www.w3.org/Graphics/SVG/1.1/DTD/svg11.dtd">
<svg version="1.1" id="Layer_1" xmlns="http://www.w3.org/2000/svg" xmlns:xlink="http://www.w3.org/1999/xlink" x="0px" y="0px"
	 width="394.333px" height="197.333px" viewBox="0 0 394.333 197.333" enable-background="new 0 0 394.333 197.333"
	 xml:space="preserve">
<path fill="#0C152D" d="M80.691,107.969c0,0-13.791-9.597-33.842-9.597c-18.813,0-32.784,10.942-32.784,25.985
	c0,22.39,29.552,32.241,29.552,45.136c0,3.671-3.671,7.343-7.969,7.343c-14.418,0-27.05-15.804-27.05-15.804
	s-5.758,21.261-5.82,21.489c-0.193,0.713,11.621,5.386,12.607,5.734c4.578,1.619,9.322,2.759,14.131,3.414
	c9.643,1.309,21.541,1.428,30.367-3.025c7.26-3.66,13.912-9.242,16.131-17.387c0.491-1.8,0.737-3.661,0.737-5.526
	c0-26.506-28.836-30.268-28.836-46.925c0-3.045,3.045-5.553,6.09-5.553c11.104,0,21.314,13.255,21.314,13.255L80.691,107.969z"/>
<path fill="#0C152D" d="M361.731,43.772c2.329-7.349,3.897-13.935,3.897-13.935l-36.826,14.847c0,0,3.544,1.51,1.893,8.893
	c-1.653,7.383-3.818,20.048-5.327,26.778c-1.505,6.732-5.583,10.178-7.62,10.178v1.601h37.796v-1.358c0,0-3.591-0.68-1.554-9.414
	c0.968-4.135,3.627-15.911,6.161-27.162c11.802-12.788,24.638,3.269,24.638,3.269l6.186-29.088
	C379.143,28.292,368.573,34.822,361.731,43.772"/>
<path fill="#0C152D" d="M148.316,3.828l0.007-0.007L118.17,3.86c0,0-1.943,4.012-4.344,7.458
	c-6.854,9.84-21.05,29.676-30.078,42.172L66.643,3.458h-31.73c0,0,4.537,8.225,2.499,18.414
	c-1.343,6.718-12.349,57.677-13.255,61.465c-1.47,6.143-6.419,6.969-6.419,6.969v1.649h24.551v-1.989c0,0-3.251-0.533-2.038-6.744
	c0.793-4.063,7.278-33.041,7.278-33.041s7.941,29.509,11.353,32.022c7.118,5.241,14.163,9.933,14.163,9.933l31.11-44.105
	c-2.541,11.349-6.147,27.461-7.236,32.326c-1.507,6.732-5.583,10.178-7.621,10.178v1.601h5.531h32.264h7.007v-1.601
	c0,0-5.22,0.268-3.028-9.17c1.382-5.953,8.931-39.972,13.595-61.041c2.18-9.846,9.188-16.501,9.188-16.501L148.316,3.828z"/>
<path fill="#0C152D" d="M163.423,160.649c-2.092,3.743-3.362,7.299-6.502,10.831c-1.208,1.357-3.826,4.81-6.599,3.588
	c-4.852-2.133,0.195-13.386,1.359-17.659c2.112-7.756,4.222-16.657-1.134-23.988c-2.945-4.031-7.851-5.521-12.672-5.521
	c-13.322,0-19.439,10.199-20.714,12.646c5.015-21.506,9.65-41.315,9.65-41.315l-36.825,14.846c0,0,3.545,1.51,1.893,8.893
	c-1.653,7.383-10.834,48.43-12.341,55.162c-1.508,6.733-5.583,10.177-7.621,10.177v1.602h37.794v-1.358c0,0-3.589-0.681-1.552-9.413
	c0.645-2.766,2.812-12.057,5.469-23.452c0.431-1.089,4.375-10.708,9.317-10.708c8.453,0-1.541,17.618-1.541,31.838
	c0,11.742,7.447,16.581,14.748,16.581c17.965,0,25.486-22.603,25.486-22.603l3.005-13.41
	C163.045,156.768,163.78,160.004,163.423,160.649"/>
<path fill="#0C152D" d="M263.8,62.587c-2.09,3.745-3.359,7.3-6.501,10.832c-1.208,1.359-3.827,4.811-6.599,3.591
	c-4.852-2.135,0.194-13.388,1.358-17.661c2.112-7.756,4.222-16.659-1.133-23.989c-2.944-4.032-7.851-5.523-12.673-5.523
	c-13.073,0-19.205,9.819-20.635,12.499c1.623-7.22,2.806-12.499,2.806-12.499l-36.824,14.847c0,0,3.544,1.511,1.893,8.893
	c-1.653,7.383-3.819,20.048-5.325,26.78c-1.507,6.73-5.584,10.176-7.621,10.176v1.601h37.794v-1.359c0,0-3.591-0.679-1.553-9.413
	c0.893-3.823,3.233-14.179,5.584-24.611c1.164-2.667,4.688-9.835,8.954-9.835c8.45,0-1.542,17.619-1.542,31.84
	c0,11.742,7.447,16.581,14.748,16.581c17.965,0,25.486-22.603,25.486-22.603l3.007-13.411
	C263.421,58.708,264.159,61.945,263.8,62.587"/>
<polygon fill="#0C152D" points="350.799,106.481 350.784,106.481 350.767,106.481 "/>
<path fill="#0C152D" d="M294.814,30.014c-19.743,0.007-35.604,13.148-37.777,33.245h-0.005c-0.214,1.756-0.337,3.559-0.337,5.411
	c0,19.471,17.265,27.824,29.8,27.833c19.743-0.008,35.604-13.147,37.778-33.244h0.004c0.216-1.757,0.337-3.561,0.337-5.414
	C324.614,38.376,307.35,30.021,294.814,30.014 M299.07,63.477c-1.688,9.814-6.709,17.461-11.932,17.461
	c-4.044,0-5.523-5.031-5.523-10.062c0-2.653,0.236-5.116,0.625-7.399c1.688-9.814,6.71-17.462,11.93-17.462
	c4.044,0,5.525,5.032,5.525,10.063C299.695,58.73,299.46,61.193,299.07,63.477L299.07,63.477z"/>
<path fill="#0C152D" d="M370.924,166.751c-0.135,0.575-0.8,1.273-1.126,1.742c-1.027,1.487-2.158,2.904-3.37,4.243
	c-7.629,8.463-22.459,16.103-30.467,3.935c-2.046-3.115-3.341-6.767-3.684-10.479c1.508,0.859,3.745,1.665,7.087,2.069
	c12.595,1.523,32.138-4.711,32.551-20.663c0,0,0.198-16.516-21.003-19.867c-20.002-3.159-44.478,9.483-44.478,39.282
	c0,17.911,17.439,26.942,35.59,26.942c9.878,0,18.338-3.252,24.005-6.218C366.03,187.738,370.924,166.758,370.924,166.751
	 M343.063,143.094c10.795,0-0.33,21.677-10.895,17.659C332.65,150.496,337.094,143.094,343.063,143.094"/>
<path fill="#0C152D" d="M309.783,167.589c-0.149,0.841-0.534,1.697-1.215,2.562c-5.455,6.93-11.912,3.671-10.32-3.178
	c0.017-0.061,2.622-11.548,5.013-22.067c5.31-22.765,10.691-45.776,10.691-45.776l-36.824,14.847c0,0,3.545,1.51,1.892,8.892
	c-0.312,1.393-0.353,1.612-1.131,5.089l-0.201,0.808c-2.397-0.572-4.766-0.894-6.984-0.979
	c-26.118-0.984-43.944,22.468-36.757,46.385c3.896,12.964,16.194,20.104,29.39,20.104l3.84-17.928
	c-3.293,1.696-6.712,0.65-8.302-2.329c-1.915-3.584-1.4-8.938-0.745-12.767c1.688-9.814,6.711-17.462,11.93-17.462
	c1.472,0,2.601,0.671,3.443,1.762c-0.319,1.558-0.736,3.526-1.288,5.987c-0.605,2.712-2.305,10.297-4.286,19.146
	c-0.809,3.877-0.937,8.074,0.232,11.89c2.89,9.456,13.757,11.703,22.331,9.591c7.241-1.785,12.864-6.889,16.907-13.007
	c1.721-2.604,3.267-5.397,4.399-8.314l3.671-12.188C315.468,158.656,313.067,163.559,309.783,167.589"/>
<path fill="#0C152D" d="M235.456,167.686c-0.153,0.842-0.533,1.7-1.215,2.563c-5.458,6.929-11.914,3.673-10.32-3.177
	c0.007-0.036,8.896-39.176,8.896-39.176l-3.063,1.235l0.089-0.078c0,0-5.457,2.391-11.353,2.391c-4.563,0-11.357-2.664-19.324-3.448
	c-0.905-0.104-1.796-0.176-2.663-0.21c-26.116-0.984-43.942,22.468-36.755,46.385c3.896,12.964,16.195,20.104,29.391,20.104
	l3.839-17.928c-3.295,1.696-6.713,0.65-8.303-2.327c-1.915-3.586-1.401-8.94-0.745-12.769c1.688-9.815,6.711-17.462,11.93-17.462
	c1.434,0,2.539,0.642,3.377,1.681l-0.03,0.02c-0.322,1.581-0.753,3.607-1.32,6.146c-0.607,2.712-2.307,10.299-4.287,19.146
	c-0.81,3.878-0.936,8.073,0.232,11.893c2.891,9.455,13.757,11.701,22.332,9.59c7.24-1.785,12.865-6.889,16.905-13.006
	c1.723-2.607,3.271-5.4,4.401-8.318l3.673-12.186C241.141,158.754,238.737,163.658,235.456,167.686"/>
<path fill="#0C152D" d="M181.978,29.838l-36.825,14.847c0,0,3.545,1.511,1.892,8.893c-1.652,7.383-3.818,20.048-5.324,26.78
	c-1.507,6.73-5.583,10.176-7.621,10.176v1.601h38.448l-0.017-1.586c0,0-4.226-0.451-2.188-9.185
	C172.38,72.63,181.978,29.838,181.978,29.838"/>
<path fill="#0C152D" d="M184.792,16.648c0,7.5-6.46,13.578-14.426,13.578c-7.967,0-14.427-6.078-14.427-13.578
	c0-7.498,6.46-13.576,14.427-13.576C178.332,3.072,184.792,9.151,184.792,16.648"/>
</svg>
